<?xml version="1.0" encoding="UTF-8"?>
<svg version="1.1" xmlns="http://www.w3.org/2000/svg" width="320" height="320">
<path d="M0 0 C3.2506456 1.19887672 6.26546488 2.57451981 9.34375 4.1640625 C11.03371094 5.01871094 11.03371094 5.01871094 12.7578125 5.890625 C26.79347639 13.29170996 37.9931751 23.54870544 49.15625 34.6640625 C49.64439178 35.14843781 50.13253357 35.63281311 50.63546753 36.13186646 C57.32642096 42.79663109 63.4896524 49.7514475 69.34375 57.1640625 C69.94372803 57.90994629 70.54370605 58.65583008 71.16186523 59.42431641 C83.5559293 74.8577628 94.33711988 91.10392664 104.34375 108.1640625 C104.91996094 109.08574219 105.49617187 110.00742188 106.08984375 110.95703125 C107.34375 113.1640625 107.34375 113.1640625 107.34375 115.1640625 C108.00375 115.1640625 108.66375 115.1640625 109.34375 115.1640625 C109.72273438 114.14505859 109.72273438 114.14505859 110.109375 113.10546875 C118.07308863 94.12864481 131.61237866 77.15431728 144.34375 61.1640625 C145.07851562 60.2359375 145.81328125 59.3078125 146.5703125 58.3515625 C152.2011039 51.34789263 158.14818536 44.66868243 164.34375 38.1640625 C165.28831055 37.16850342 165.28831055 37.16850342 166.25195312 36.15283203 C181.24829505 20.45107478 202.03178596 0.02098881 225.16796875 -1.26953125 C226.78897437 -1.28648465 228.41021879 -1.28773689 230.03125 -1.2734375 C230.84658203 -1.29341797 231.66191406 -1.31339844 232.50195312 -1.33398438 C237.94426966 -1.32958477 241.01705106 -0.41505696 245.34375 3.1640625 C253.17708624 11.22120835 252.86797037 20.89684962 252.78125 31.4140625 C252.77818344 32.53022949 252.77818344 32.53022949 252.77505493 33.66894531 C252.71556944 47.22234777 251.76797792 60.67201245 250.53125 74.1640625 C250.40736404 75.52899841 250.40736404 75.52899841 250.28097534 76.92150879 C249.39379602 86.50620814 248.30653892 96.04640946 246.8515625 105.5625 C246.73640793 106.33231201 246.62125336 107.10212402 246.50260925 107.89526367 C244.27674187 121.76499391 237.19874378 134.20960635 226.34375 143.1640625 C213.01574047 152.41438073 199.06543534 154.99328586 183.34375 157.1640625 C184.31054688 157.51597656 185.27734375 157.86789063 186.2734375 158.23046875 C194.46732328 161.30343956 201.40902015 164.7134188 208.34375 170.1640625 C209.705 171.0921875 209.705 171.0921875 211.09375 172.0390625 C216.91991727 177.54155381 220.85376979 184.40669652 221.6796875 192.42578125 C221.87165391 209.26123555 214.39899454 221.15386321 202.96875 232.9765625 C189.57004108 245.79758021 175.89899062 253.95786252 157.22265625 253.5546875 C146.51714546 252.97078793 139.12520436 246.9935073 132.00390625 239.390625 C120.75107389 226.16700409 112.58924251 209.19533879 109.34375 192.1640625 C108.68375 192.1640625 108.02375 192.1640625 107.34375 192.1640625 C107.23998047 192.70861084 107.13621094 193.25315918 107.02929688 193.81420898 C102.72335862 214.87772391 91.02262102 236.250641 73.6484375 249.16796875 C64.11316149 254.89179042 52.44578664 254.89993976 41.84375 252.30859375 C23.10809021 245.16074438 6.18222917 227.86490862 -2.65625 210.1640625 C-5.83184092 202.28859702 -6.36133721 192.24065885 -3.09375 184.2890625 C-2.32951941 182.88665997 -1.51520434 181.51053147 -0.65625 180.1640625 C-0.21667969 179.42929688 0.22289062 178.69453125 0.67578125 177.9375 C8.18166552 166.8781971 21.05374087 161.22670671 33.34375 157.1640625 C32.13460937 157.00550781 30.92546875 156.84695312 29.6796875 156.68359375 C11.14358602 154.10617849 -6.2514557 149.24065865 -18.65625 134.1640625 C-20.92939879 130.95211909 -22.85221116 127.65905117 -24.65625 124.1640625 C-25.03652344 123.44089844 -25.41679687 122.71773438 -25.80859375 121.97265625 C-28.24511465 116.68586563 -29.25818307 111.33582543 -30.1328125 105.62890625 C-30.26122025 104.79903198 -30.38962799 103.96915771 -30.52192688 103.11413574 C-31.96555058 93.49784704 -32.96608222 83.84647803 -33.84375 74.1640625 C-33.92963379 73.22282532 -34.01551758 72.28158813 -34.10400391 71.31182861 C-35.2893909 58.05686919 -36.07446612 44.84789232 -36.15625 31.5390625 C-36.16651215 30.82089355 -36.17677429 30.10272461 -36.18734741 29.36279297 C-36.29025347 20.44030861 -36.27309812 11.09123542 -29.81835938 4.20263672 C-21.81320071 -2.96919806 -10.1126655 -2.31208378 0 0 Z " fill="#1185FE" transform="translate(51.65625,33.8359375)"/>
</svg>
